<?xml version="1.0" encoding="UTF-8"?>
<svg id="New_Layer" xmlns="http://www.w3.org/2000/svg" xmlns:xlink="http://www.w3.org/1999/xlink" version="1.1" viewBox="0 0 830.2 500">
  <!-- Generator: Adobe Illustrator 30.2.1, SVG Export Plug-In . SVG Version: 2.1.1 Build 1)  -->
  <defs>
    <style>
      .st0 {
        fill: url(#linear-gradient1);
      }

      .st1 {
        fill: url(#linear-gradient);
      }
    </style>
    <linearGradient id="linear-gradient" x1="503.1" y1="101" x2="735.6" y2="101" gradientUnits="userSpaceOnUse">
      <stop offset="0" stop-color="#1a2b56"/>
      <stop offset="1" stop-color="#182a53"/>
    </linearGradient>
    <linearGradient id="linear-gradient1" x1="30.7" y1="297.6" x2="799.5" y2="297.6" gradientUnits="userSpaceOnUse">
      <stop offset="0" stop-color="#192a54"/>
      <stop offset="0" stop-color="#17305a"/>
      <stop offset=".2" stop-color="#14436b"/>
      <stop offset=".3" stop-color="#0f6187"/>
      <stop offset=".4" stop-color="#078bae"/>
      <stop offset=".5" stop-color="#00b6d5"/>
      <stop offset=".6" stop-color="#17bad7"/>
      <stop offset=".8" stop-color="#40c2dc"/>
      <stop offset=".9" stop-color="#59c8de"/>
      <stop offset="1" stop-color="#63cae0"/>
    </linearGradient>
  </defs>
  <path class="st1" d="M542.2,110.5c44.5-4.1,89.6,10.8,123.5,40.2l9.9-36.4,24.8-3.4c-.4,7.4,1.5,14.6-.3,21.5-.7,2.7-4.4,4.4-4.8,6.8-.5,3.5,3.3,5.4,2.7,8.7l-4.3,23.7c6.2,2.2,14,2.5,20.1,0,.1-7.9-5.2-16.5-3.5-23.9,1.5-6.4,2.7-10.3-2.8-15.5-1.2-6.6.2-15.2-.1-22.4l28.2-4.2c-3.7-4.5-8.6-7.3-13.6-10.9l-53-38.3-38.9-27.8-127.1,16,47.3,34.2-8.2,31.7Z"/>
  <path class="st0" d="M798.5,196.8c-1-.7-17.4-.7-21.1,0l.2,151.5-.2,54.4c-1.4,1.9-4.6.1-6.7-.3-43.8-9.2-89.1-7.7-132.1,4.9-33.3,9.8-63.3,26.6-88.5,50.1-1.3,1.2-2.1,2-3.5,1.7,1.5-2.7,3.8-5.9,6.1-8,7-6.5,13.3-13.9,20.8-19.8,53-42.2,118.9-60,186.7-51.1l.2-215.4c0-6,0-10.9-.4-16.8h-23.5c-1,3.6-.5,7.2-.7,11.3v98.4c.1,0,.2,95.9.2,95.9-64.5-2.8-126.1,22.4-168.7,68.9-1.3,1.4-3,2.5-3.8,4.4,0,.1-.2.2-.2.4-.2.2-.4.4-.6.6-4.4,5-9.5,9.9-11.8,16.1-.1.3-.5.6-.7.8-.2.1-.3.3-.4.5-.1.2-.3.3-.5.5-2.7,1.3-1.8,5.7-6.2,6,29.7-68,98.6-117.4,173.1-122.1,9.2-55.5-5.8-113.8-43.8-154.6-33-34.9-79.3-53.6-127.2-50.9-46.8,2.7-81.4,22.4-113.8,55.1-15.6,15.8-29.8,32-43.9,49.8l14,18,26.9,34.6c.6.8,1.5,1.3,2.1,1.3.7,0,1.5-.5,2.1-1.3l21.2-27.1c11.5-14.7,23.8-27.8,38.4-39.6,34.3-27.8,81.9-28.2,117.5-1.7,30.9,23,46.9,67.6,38.4,105.5-23,11.4-42.3,26.7-59.9,45.2-23.5,24.7-41,54-51,87.4-1.4-1.8-1.2-4.2-1-6.6,1.5-14.1,4.1-27.3,8-41.8-19.8-3.5-36.9-12-52.4-24.6-13.6-11.2-25.2-23.3-36.2-37.2l-59.5-74.6-44.2-54.4c-13.5-16.6-27.5-31.9-43.2-46.2-5.2-4.7-10.8-7.7-15.8-11.6-44.3-34.5-110.3-38.8-161-15.4-29.4,13.5-54.5,35.1-72.4,62.1-28.3,42.7-36,96.1-22.1,145.2,8.5,30,25.1,55.8,47.2,77.3,58.2,56.7,149.1,64,213.2,12.9,25.9-20.7,45.8-44.1,65.8-70.3.6-2.4-.7-3.6-2-5.3l-39.3-50.2c-19.7,23.7-37.1,48.7-60.6,67.5-24.8,20.9-57.6,28.4-89.3,19-34.2-10.1-61.2-38.6-70.1-73.1-11.5-44.4,6.6-90.6,44.8-115.2,24.3-15.7,54-19.8,81.5-10.8,23,7.6,33,17.4,49.8,33.6,2.6,2.5,5.2,6.1,7.9,9.5l75.6,93.4,22.9,28.2c19.2,23.6,40.4,49.5,63.7,69,25.4,21.3,56.4,35.7,89.1,39.6,2.7.3,4.2,0,6.9-1.8,75.9-52.3,167.6-63.6,254.6-33.7v-89.4c0,0,.4-146.7.4-146.7,0-1.4-.4-2.4-1-2.8Z"/>
</svg>